<svg width="621" height="46" viewBox="0 0 621 46" fill="none" xmlns="http://www.w3.org/2000/svg">
<g clip-path="url(#clip0)">
<path d="M106.913 26.5108L109.979 28.5547C108.984 30.0203 106.604 32.5348 102.489 32.5348C97.3793 32.5348 93.5739 28.5816 93.5739 23.5526C93.5739 18.2009 97.4196 14.5703 102.059 14.5703C106.725 14.5703 109.01 18.2815 109.75 20.2851L110.153 21.307L98.1323 26.2822C99.0467 28.084 100.472 28.9984 102.489 28.9984C104.506 28.9984 105.904 28.0034 106.913 26.5108ZM97.4869 23.2702L105.514 19.9355C105.071 18.8194 103.753 18.0261 102.18 18.0261C100.176 18.0261 97.3927 19.801 97.4869 23.2702Z" fill="#6F97F6"/>
<path d="M87.7781 5.41321H91.6507V31.7145H87.7781V5.41321Z" fill="#6F97F6"/>
<path d="M81.6737 15.2693H85.4118V31.2437C85.4118 37.8728 81.4989 40.6025 76.8733 40.6025C72.5166 40.6025 69.8946 37.6711 68.913 35.2911L72.3418 33.8658C72.9604 35.3315 74.4529 37.0661 76.8733 37.0661C79.845 37.0661 81.6737 35.2239 81.6737 31.7816V30.4907H81.5392C80.6518 31.5664 78.9575 32.5346 76.8061 32.5346C72.3149 32.5346 68.2003 28.6217 68.2003 23.5792C68.2003 18.5099 72.3149 14.5566 76.8061 14.5566C78.944 14.5566 80.6518 15.5113 81.5392 16.5602H81.6737V15.2693ZM81.9426 23.5792C81.9426 20.4059 79.8315 18.0931 77.1422 18.0931C74.426 18.0931 72.1401 20.4059 72.1401 23.5792C72.1401 26.7123 74.426 28.9847 77.1422 28.9847C79.8315 28.9982 81.9426 26.7123 81.9426 23.5792Z" fill="#6F97F6"/>
<path d="M46.9409 23.5117C46.9409 28.6886 42.9069 32.4939 37.9586 32.4939C33.0103 32.4939 28.9763 28.6751 28.9763 23.5117C28.9763 18.3079 33.0103 14.516 37.9586 14.516C42.9069 14.516 46.9409 18.3079 46.9409 23.5117ZM43.0145 23.5117C43.0145 20.2845 40.6748 18.0659 37.9586 18.0659C35.2424 18.0659 32.9027 20.2845 32.9027 23.5117C32.9027 26.712 35.2424 28.9575 37.9586 28.9575C40.6748 28.9575 43.0145 26.712 43.0145 23.5117Z" fill="#6F97F6"/>
<path d="M66.5601 23.5526C66.5601 28.7295 62.5261 32.5348 57.5778 32.5348C52.6295 32.5348 48.5956 28.7295 48.5956 23.5526C48.5956 18.3488 52.6295 14.5703 57.5778 14.5703C62.5261 14.5703 66.5601 18.3353 66.5601 23.5526ZM62.6202 23.5526C62.6202 20.3254 60.2806 18.1067 57.5644 18.1067C54.8482 18.1067 52.5085 20.3254 52.5085 23.5526C52.5085 26.7528 54.8482 28.9984 57.5644 28.9984C60.294 28.9984 62.6202 26.7394 62.6202 23.5526Z" fill="#6F97F6"/>
<path d="M14.2129 28.595C8.57883 28.595 4.16838 24.0501 4.16838 18.416C4.16838 12.7819 8.57883 8.23703 14.2129 8.23703C17.2518 8.23703 19.4705 9.43377 21.111 10.9667L23.8137 8.26393C21.5278 6.07215 18.4754 4.40479 14.2129 4.40479C6.49462 4.40479 -3.05176e-05 10.6977 -3.05176e-05 18.416C-3.05176e-05 26.1343 6.49462 32.4273 14.2129 32.4273C18.3813 32.4273 21.5278 31.0557 23.9885 28.5009C26.5164 25.973 27.2963 22.4231 27.2963 19.5455C27.2963 18.6446 27.1888 17.7168 27.0677 17.031H14.2129V20.7692H23.37C23.101 23.1088 22.3615 24.709 21.2723 25.7981C19.9546 27.1294 17.8703 28.595 14.2129 28.595Z" fill="#6F97F6"/>
<path d="M186.959 22.5037C186.959 10.9897 177.626 1.65652 166.112 1.65652C165.798 1.65652 165.485 1.66445 165.175 1.67872L160.91 13.3989H164.624C166.834 13.3989 168.025 15.1001 167.268 17.1779L162.008 31.6331L157.592 31.6323L163.236 16.1386H159.915L154.271 31.6323H149.853L156.49 13.3989H156.491L160.483 2.42629C151.704 4.88226 145.264 12.9406 145.264 22.5037C145.264 32.3505 152.092 40.6023 161.272 42.7848L165.14 32.1531H165.144L171.968 13.3989H180.103C182.315 13.3989 183.505 15.1001 182.748 17.1779L178.127 29.8739C177.775 30.8411 176.645 31.6323 175.616 31.6323H169.753L165.492 43.3413C165.698 43.3469 165.905 43.3508 166.112 43.3508C177.626 43.3508 186.959 34.0169 186.959 22.5037Z" fill="#6F97F6"/>
<path d="M178.726 16.127H175.407L170.758 28.8817H174.077L178.726 16.127Z" fill="#6F97F6"/>
<path fill-rule="evenodd" clip-rule="evenodd" d="M231.695 23.8273C231.695 23.7699 231.695 23.7122 231.695 23.654V22.9473C229.334 22.9473 226.839 23.4521 226.839 26.233C226.839 27.6419 227.569 28.5964 228.824 28.5964C229.742 28.5964 230.565 28.032 231.084 27.1141C231.698 26.0369 231.697 25.0224 231.695 23.8273ZM234.217 31.6848C234.461 31.8133 234.773 31.7996 234.989 31.6068L234.999 31.616C235.651 31.0378 236.836 30.0053 237.503 29.45C237.769 29.2297 237.723 28.8763 237.512 28.5826C237.448 28.4941 237.383 28.4073 237.319 28.3211C236.786 27.6031 236.28 26.9228 236.28 25.5584V20.4738C236.28 20.3001 236.281 20.1275 236.282 19.9563C236.294 18.0055 236.304 16.224 234.842 14.8613C233.588 13.659 231.511 13.2368 229.922 13.2368C226.816 13.2368 223.347 14.3933 222.616 18.2297C222.543 18.6381 222.837 18.8538 223.103 18.9135L226.274 19.2531C226.568 19.2393 226.784 18.9502 226.839 18.6565C227.11 17.3348 228.222 16.697 229.467 16.697C230.138 16.697 230.9 16.9448 231.3 17.5459C231.708 18.1472 231.702 18.948 231.696 19.6665C231.696 19.7486 231.695 19.8297 231.695 19.9093V20.3315C231.389 20.3664 231.068 20.3992 230.737 20.433C229.02 20.6085 227.039 20.8109 225.552 21.465C223.508 22.3461 222.07 24.1496 222.07 26.7975C222.07 30.1888 224.211 31.8822 226.958 31.8822C229.283 31.8822 230.551 31.3361 232.343 29.5096C232.437 29.6455 232.522 29.7703 232.601 29.8877C233.024 30.5121 233.305 30.9278 234.217 31.6848ZM274.52 23.654L274.52 23.8273C274.522 25.0224 274.523 26.0369 273.909 27.1141C273.39 28.032 272.563 28.5964 271.649 28.5964C270.394 28.5964 269.659 27.6419 269.659 26.233C269.659 23.4521 272.154 22.9473 274.52 22.9473V23.654ZM277.814 31.6068C277.598 31.7996 277.286 31.8133 277.042 31.6848C276.12 30.9194 275.839 30.5029 275.411 29.8668C275.336 29.7555 275.256 29.6374 275.168 29.5096C273.376 31.3361 272.103 31.8822 269.783 31.8822C267.031 31.8822 264.895 30.1888 264.895 26.7975C264.895 24.1496 266.328 22.3461 268.377 21.465C269.864 20.8109 271.845 20.6085 273.562 20.433C273.893 20.3992 274.214 20.3664 274.52 20.3315V19.9093C274.52 19.8304 274.521 19.7501 274.521 19.6686V19.6684C274.527 18.9494 274.533 18.1477 274.12 17.5459C273.725 16.9448 272.963 16.697 272.287 16.697C271.042 16.697 269.935 17.3348 269.664 18.6565C269.609 18.9502 269.393 19.2393 269.094 19.2531L265.928 18.9135C265.662 18.8538 265.363 18.6381 265.441 18.2297C266.167 14.3933 269.641 13.2368 272.747 13.2368C274.336 13.2368 276.413 13.659 277.667 14.8613C279.129 16.224 279.118 18.0055 279.107 19.9563V19.9564C279.106 20.1276 279.105 20.3001 279.105 20.4738V25.5584C279.105 26.9228 279.611 27.6031 280.144 28.3211L280.144 28.3212C280.208 28.4074 280.273 28.4941 280.337 28.5826C280.543 28.8763 280.589 29.2297 280.323 29.45C279.657 30.0053 278.471 31.0378 277.819 31.616L277.814 31.6068ZM240.645 31.6528H243.912C244.261 31.6528 244.541 31.3821 244.541 31.0471V22.1718L244.541 21.9606C244.538 20.0463 244.533 17.5552 246.797 17.5552C248.88 17.5552 248.845 19.7716 248.816 21.5763C248.812 21.7814 248.809 21.9812 248.809 22.1718L248.814 31.0471C248.814 31.3683 249.071 31.6299 249.402 31.6528H252.664C253.013 31.6528 253.293 31.3821 253.293 31.0471V22.1718L253.293 22.0474L253.293 21.9418V21.9415V21.9415C253.291 21.0048 253.287 19.7426 253.597 18.9641C253.932 18.1197 254.759 17.5919 255.549 17.5919C256.496 17.5919 257.226 17.9086 257.47 19.0329C257.596 19.5722 257.578 20.8191 257.567 21.6536V21.6537V21.6541V21.6544V21.6548V21.6552C257.564 21.8568 257.562 22.0343 257.562 22.1718V31.0471C257.562 31.3683 257.824 31.6299 258.15 31.6528H261.412C261.761 31.6528 262.041 31.3821 262.041 31.0471L262.046 20.4785C262.046 20.2208 262.05 19.9579 262.055 19.6925V19.6924V19.6922V19.6921V19.692C262.081 18.1091 262.109 16.435 261.224 15.2286C260.309 13.962 258.811 13.3975 257.442 13.3975C255.517 13.3975 253.721 14.3842 252.931 16.4998C252.012 14.3842 250.734 13.3975 248.69 13.3975C246.677 13.3975 245.184 14.3842 244.389 16.4998H244.33V14.3108C244.307 14.0079 244.054 13.7647 243.737 13.7509H240.691C240.342 13.7509 240.061 14.0171 240.061 14.3521V31.0976C240.084 31.3958 240.333 31.6299 240.645 31.6528ZM283.08 16.7067V14.3112C283.08 13.9486 283.356 13.7054 283.687 13.7054H294.424C294.769 13.7054 295.044 13.9532 295.044 14.3112V16.3625C295.04 16.7067 294.75 17.1564 294.236 17.8677L288.672 25.8022C290.739 25.7517 292.922 26.0592 294.796 27.1147C295.219 27.3533 295.334 27.7021 295.366 28.0462V30.6023C295.366 30.9511 294.98 31.3595 294.576 31.1484C291.272 29.4184 286.884 29.2302 283.232 31.1668C282.86 31.3687 282.469 30.9649 282.469 30.6161V28.1885C282.469 27.7984 282.474 27.133 282.864 26.541L289.31 17.3078H283.7C283.356 17.3078 283.08 17.0646 283.08 16.7067ZM282.975 34.9253C284.967 34.6893 289.323 34.1732 290.099 35.168C290.885 36.1724 289.228 40.3028 288.488 42.1493L288.487 42.1525C288.262 42.7124 288.744 42.9372 289.249 42.515C292.544 39.7662 293.389 34.0069 292.718 33.1763C292.047 32.3503 286.295 31.639 282.79 34.1033C282.247 34.4796 282.339 35.0027 282.941 34.9293L282.975 34.9253ZM264.872 45.0072C272.526 45.0072 281.416 42.5979 287.55 38.0823C288.565 37.3297 287.697 36.21 286.659 36.6505C279.785 39.5646 272.31 40.9688 265.515 40.9688C255.439 40.9688 245.685 38.2108 237.796 33.6263C237.107 33.2225 236.593 33.9292 237.167 34.4478C244.477 41.0423 254.139 45.0072 264.872 45.0072ZM304.288 13.3975C309.135 13.3975 311.759 17.5552 311.759 22.8418C311.759 27.9495 308.859 32.0016 304.288 32.0016C299.528 32.0016 296.937 27.8439 296.937 22.6629C296.937 17.4497 299.56 13.3975 304.288 13.3975ZM304.316 16.8164C301.908 16.8164 301.756 20.093 301.756 22.1351L301.756 22.2103C301.756 24.2867 301.755 28.5506 304.288 28.5506C306.82 28.5506 306.939 25.0262 306.939 22.8785C306.939 21.4651 306.879 19.7763 306.452 18.4363C306.084 17.2707 305.354 16.8164 304.316 16.8164ZM314.79 31.6528H318.043C318.392 31.6528 318.677 31.3821 318.681 31.0471V22.0296C318.681 20.9007 318.741 19.8819 319.201 18.8585C319.563 18.0509 320.294 17.5185 321.089 17.5185C323.171 17.5185 323.151 19.8014 323.136 21.5928C323.135 21.7424 323.133 21.8885 323.133 22.0296V31.1251C323.166 31.4096 323.414 31.6299 323.712 31.6528H326.988C327.31 31.6528 327.581 31.4188 327.618 31.1251V20.584C327.618 18.9641 327.618 16.7108 326.763 15.3708C325.844 13.9253 324.415 13.3975 322.95 13.3975C320.694 13.3975 319.412 14.4897 318.498 16.7797H318.438V14.219C318.374 13.9574 318.139 13.7647 317.854 13.7509H314.827C314.496 13.7509 314.225 13.9895 314.197 14.297L314.202 31.0471C314.202 31.3683 314.464 31.6299 314.79 31.6528Z" fill="#6F97F6"/>
<path fill-rule="evenodd" clip-rule="evenodd" d="M381.465 10.5161L381.464 10.5457C381.304 10.516 381.129 10.5465 381.036 10.5696C381.018 10.5696 380.679 10.6767 380.125 10.8551C379.572 9.26742 378.625 7.82248 376.928 7.82248H376.767C376.303 7.21596 375.696 6.93054 375.196 6.93054C371.266 6.93054 369.373 11.8362 368.783 14.3336C368.08 14.5542 367.47 14.7411 367.004 14.8841C366.452 15.0533 366.101 15.1609 366.033 15.1899C365.176 15.4575 365.158 15.4753 365.051 16.278C364.961 16.8846 362.729 34.1346 362.729 34.1346L380.107 37.3813L380.162 37.3695L380.161 37.3812L389.592 35.3476C389.592 35.3476 386.288 13.0135 386.27 12.8529C386.198 12.6924 386.073 12.621 385.966 12.5854C385.859 12.5854 383.519 12.407 383.519 12.407C383.519 12.407 381.894 10.7836 381.697 10.6231C381.626 10.5517 381.537 10.5161 381.465 10.5161ZM377.696 11.5686C378.214 11.3902 378.732 11.2297 379.161 11.1048C378.786 9.96313 378.232 8.982 377.339 8.87497C377.571 9.49932 377.696 10.2842 377.696 11.2475V11.5686ZM376.642 11.7113C376.642 10.534 376.482 9.67771 376.249 9.07119C375.321 9.48148 374.195 10.5875 373.606 12.8352C374.238 12.6319 374.857 12.4415 375.459 12.2562L375.46 12.2562L375.46 12.2561C375.862 12.1324 376.256 12.0111 376.642 11.8897V11.7113ZM375.606 8.14358C375.464 8.03654 375.285 7.96519 375.106 7.96519C372.284 7.96519 370.677 11.6757 370.034 13.959C370.446 13.8249 370.869 13.6959 371.302 13.5638L371.302 13.5638C371.675 13.4499 372.056 13.3337 372.445 13.2098C372.999 10.2129 374.338 8.73225 375.606 8.14358ZM375.785 21.238L376.928 17.7951C376.928 17.7951 376.142 17.3313 374.606 17.3492C370.48 17.3492 368.444 20.0963 368.444 22.9327C368.444 24.839 369.506 25.7013 370.436 26.456C371.159 27.0431 371.802 27.5651 371.802 28.4627C371.802 28.9622 371.445 29.6401 370.569 29.6401C369.248 29.6401 367.676 28.2843 367.676 28.2843L366.872 30.9245C366.872 30.9245 368.373 32.7797 371.373 32.7797C373.856 32.7797 375.696 30.9066 375.696 27.9989C375.696 25.7637 374.19 24.6593 373.002 23.7875C372.227 23.219 371.588 22.7495 371.588 22.13C371.588 21.8445 371.677 20.685 373.517 20.685C374.749 20.685 375.785 21.238 375.785 21.238ZM399.111 22.7355C399.111 23.3242 399.593 23.7701 400.54 24.2696C401.987 25.108 403.184 26.214 403.219 27.8195C403.219 30.7629 400.808 32.4041 397.486 32.4041C395.2 32.4041 393.842 31.4943 393.842 31.4943L394.753 28.872C394.753 28.872 396.236 29.6748 397.79 29.6748C398.843 29.6748 399.415 29.1039 399.415 28.4082C399.415 27.7303 399.022 27.2665 397.879 26.6422C396.486 25.8394 395.432 24.7156 395.432 23.235C395.432 20.6305 397.682 18.7753 400.915 18.7753C403.237 18.7753 404.023 19.3818 404.023 19.3818L403.166 22.0041C403.166 22.0041 402.076 21.5046 400.844 21.5046C399.79 21.5046 399.111 21.9862 399.111 22.7355ZM409.881 20.7019C410.864 19.5245 412.15 18.7396 413.793 18.7396C415.74 18.7396 416.829 19.9883 416.847 22.1111C416.847 22.7712 416.74 23.7344 416.579 24.5372L415.133 32.1722H411.435L412.829 24.7691C412.954 24.2696 412.989 23.6274 412.989 23.1279C412.989 22.3252 412.668 21.7543 411.828 21.7543C410.649 21.7543 409.381 23.2706 408.899 25.7145L407.667 32.1722H403.969L407.577 13.2631H411.275L409.846 20.684L409.881 20.7019ZM417.794 27.2308C417.794 22.7533 420.741 18.7396 425.206 18.7396C428.689 18.7396 430.225 21.2549 430.207 23.9128C430.207 28.4974 427.26 32.4041 422.884 32.4041C419.562 32.4041 417.794 30.085 417.794 27.2308ZM421.598 27.1595C421.598 28.5152 422.116 29.5856 423.384 29.5856C425.331 29.5856 426.457 26.0892 426.457 23.8236C426.457 22.7355 426.01 21.5938 424.706 21.5938C422.688 21.5938 421.598 25.0367 421.598 27.1595ZM435.78 20.9516C435.78 20.9516 437.191 18.7396 439.692 18.7396C442.406 18.7396 443.532 20.9694 443.55 23.4669C443.55 27.9622 440.71 32.4219 436.352 32.4219C434.958 32.4219 434.19 31.9403 434.19 31.9403H434.101L433.065 37.4168H429.368L431.922 23.8772C432.208 22.3609 432.511 20.3094 432.672 18.9715H435.959L435.744 20.9516H435.78ZM434.619 29.0682C434.619 29.0682 435.191 29.6212 436.155 29.6212C438.227 29.6212 439.656 26.214 439.638 23.8236C439.638 22.8425 439.299 21.79 438.156 21.79C436.87 21.79 435.655 23.3063 435.226 25.6254L434.619 29.0682ZM446.693 15.5821C446.693 14.3869 447.64 13.4415 448.819 13.4415C449.926 13.4415 450.658 14.2086 450.64 15.2967C450.623 16.6525 449.64 17.4374 448.479 17.4374H448.444C447.39 17.4374 446.693 16.6703 446.693 15.5821ZM447.336 32.1543H443.639L446.122 19.025H449.837L447.336 32.1543ZM456.695 19.0072H459.267L458.732 21.8257H456.177L454.213 32.1722H450.515L452.48 21.8257H450.748L451.301 19.025H453.034L453.141 18.4185C453.427 16.8487 454.016 15.2967 455.284 14.2264C456.285 13.3701 457.606 12.9955 458.91 12.9955C460.303 12.9955 460.928 13.3166 460.928 13.3166L460.214 16.2243C460.214 16.2243 459.696 16.0281 459.035 16.0281C457.785 16.0281 457.035 17.1341 456.82 18.4007L456.695 19.0072ZM464.84 28.0514C465.858 24.8583 468.18 19.025 468.18 19.025V19.0072H472.056L467.537 28.7293C465.93 32.0473 464.358 34.4912 462.679 36.061C461.375 37.2919 459.803 37.9163 459.053 38.0768L458.017 34.9372C458.642 34.7231 459.428 34.3842 460.125 33.8847C460.982 33.296 461.714 32.4933 462.143 31.6549C462.25 31.4765 462.268 31.3159 462.232 31.0483L460 19.025H463.893C463.893 19.025 464.733 27.0168 464.804 28.0514H464.84Z" fill="#6F97F6"/>
<path d="M601.392 30.1892H601.304L597.562 17.1705H591.525V33.5829H595.524L595.299 20.1145H595.387L599.405 33.5829H605.198V17.1697H601.172L601.392 30.1892ZM524.583 17.1697L521.571 33.7557H525.966L528.193 18.7007H528.286L530.454 33.7565H534.823L531.825 17.1697H524.583ZM549.167 17.1713L547.158 29.8525H547.067L545.067 17.1713H538.432L538.072 33.7557H542.14L542.242 18.8411H542.334L545.051 33.7557H549.177L551.895 18.846L551.986 18.8411L552.091 33.7557H556.161L555.802 17.1713H549.167ZM511.492 21.4363C511.416 21.0972 511.434 20.7581 511.475 20.5707C511.593 20.0378 511.945 19.454 512.963 19.454C513.917 19.454 514.473 20.0564 514.473 20.9559V21.9805H518.535V20.8227C518.535 17.2044 515.352 16.64 513.048 16.64C510.156 16.64 507.795 17.6195 507.36 20.3253C507.241 21.052 507.227 21.7181 507.399 22.5579C508.106 25.9476 513.885 26.9295 514.724 29.0733C514.881 29.473 514.83 29.9914 514.753 30.3046C514.621 30.8473 514.256 31.4117 513.17 31.4117C512.154 31.4117 511.534 30.8182 511.534 29.913L511.531 28.3038H507.169L507.167 29.586C507.167 33.2858 510.022 34.3977 513.08 34.3977C516.027 34.3977 518.443 33.3819 518.834 30.6131C519.032 29.1774 518.886 28.2359 518.816 27.8847C518.127 24.4102 511.957 23.3831 511.492 21.4363ZM564.421 21.4751C564.341 21.144 564.364 20.8081 564.402 20.6248C564.516 20.0951 564.865 19.5178 565.874 19.5178C566.817 19.5178 567.371 20.1113 567.371 20.9987V22.0161H571.39V20.8687C571.39 17.2949 568.236 16.7321 565.961 16.7321C563.095 16.7321 560.754 17.6897 560.328 20.3786C560.21 21.102 560.191 21.7633 560.365 22.591C561.066 25.9452 566.787 26.9198 567.62 29.0402C567.772 29.4399 567.725 29.9494 567.651 30.2602C567.519 30.8069 567.153 31.3543 566.082 31.3543C565.071 31.3543 564.463 30.7697 564.463 29.8743L564.459 28.2771H560.136V29.5481C560.136 33.2099 562.966 34.3088 565.994 34.3088C568.905 34.3088 571.301 33.3019 571.684 30.5622C571.881 29.1451 571.736 28.2117 571.667 27.8621C570.985 24.4247 564.874 23.4033 564.421 21.4751ZM582.871 29.4358C582.874 29.6466 582.868 29.8904 582.833 30.0681C582.752 30.4807 582.404 31.2615 581.273 31.2615C580.146 31.2615 579.794 30.4807 579.713 30.0681C579.678 29.8904 579.67 29.6466 579.672 29.4358V17.1681H575.56V29.0555C575.554 29.3631 575.584 29.9857 575.598 30.1512C575.878 33.243 578.281 34.2418 581.272 34.2418C584.261 34.2418 586.663 33.243 586.951 30.1512C586.966 29.9857 586.997 29.3623 586.992 29.0555V17.1681H582.87V29.4358H582.871ZM615.242 24.4312V26.86H616.908V29.2654C616.913 29.4746 616.905 29.7055 616.87 29.8953C616.797 30.3418 616.382 31.0951 615.209 31.0951C614.032 31.0951 613.619 30.341 613.543 29.8953C613.512 29.7055 613.502 29.4746 613.507 29.2654V21.6769C613.507 21.4073 613.524 21.1125 613.573 20.8986C613.659 20.49 614.01 19.6946 615.193 19.6946C616.437 19.6946 616.745 20.5344 616.819 20.8986C616.867 21.1287 616.87 21.5251 616.87 21.5235V22.4578H620.97V21.9038C620.969 21.9038 620.985 21.337 620.937 20.8194C620.636 17.7002 618.108 16.7183 615.227 16.7183C612.344 16.7183 609.876 17.7083 609.518 20.8194C609.483 21.0875 609.447 21.6091 609.447 21.9038L609.445 28.8819C609.447 29.1944 609.457 29.4253 609.502 29.9776C609.77 32.9975 612.344 34.0795 615.223 34.0795C618.104 34.0795 620.679 32.9975 620.948 29.9776C620.993 29.4245 620.999 29.1936 621 28.8819V24.4312H615.242Z" fill="#6F97F6"/>
</g>
<defs>
<clipPath id="clip0">
<rect width="621" height="45.0073" fill="white"/>
</clipPath>
</defs>
</svg>
