<svg width="1170" height="351" viewBox="0 0 1170 351" fill="none" xmlns="http://www.w3.org/2000/svg">
<path opacity="0.51" d="M532.31 109.873C628.073 149.604 701.14 112.816 833.157 141.735C884.009 152.869 1070.83 154.558 1142.2 154.841C1179.17 154.973 1179.36 197.054 1142.2 197.138C1080.08 197.261 963.994 197.204 908.204 200.28C842.056 203.932 817.962 217.481 770.779 220.962C748.945 222.576 692.774 221.434 650.516 221.906C510.882 223.698 543.81 265.581 390.911 269.695C182.019 275.328 296.151 354.328 8.68269 350.809C2.5388 350.809 0.44429 349.441 0.44429 344.601C0.837803 67.8579 0 16.691 0 2.16084C9.30469 0.88709 157.088 -7.72721 232.376 40.1562C353.413 117.091 392.587 51.9219 532.31 109.873Z" fill="#1C3B87"/>
<path opacity="0.3" d="M434.96 125.412C514.109 155.784 574.499 127.663 683.613 149.769C725.643 158.28 880.05 159.571 939.045 159.787C969.596 159.888 969.754 192.056 939.045 192.121C887.698 192.215 791.751 192.172 745.64 194.523C690.968 197.314 671.055 207.671 632.057 210.333C614.011 211.566 567.585 210.693 532.659 211.054C417.25 212.424 444.465 244.441 318.092 247.585C145.441 251.891 239.772 312.282 2.17633 309.592C-2.90166 309.592 -4.63279 308.546 -4.63279 304.846C-4.30755 93.2949 -5 54.1813 -5 43.074C2.69043 42.1003 124.835 35.5153 187.061 72.1189C287.1 130.93 319.477 81.1129 434.96 125.412Z" fill="#A1BDF3" fill-opacity="0.5"/>
<path opacity="0.3" d="M332.812 146.477C393.585 164.162 439.954 147.788 523.734 160.66C556.006 165.615 674.563 166.367 719.861 166.493C743.319 166.552 743.44 185.282 719.861 185.32C680.436 185.374 606.765 185.349 571.36 186.718C529.381 188.343 514.092 194.374 484.148 195.924C470.292 196.642 434.645 196.134 407.827 196.344C319.214 197.142 340.11 215.784 243.078 217.615C110.512 220.122 182.942 255.285 0.510167 253.719C-3.38884 253.719 -4.71805 253.11 -4.71805 250.956C-4.46832 127.777 -5 105.002 -5 98.5345C0.904901 97.9676 94.6905 94.1333 142.469 115.446C219.281 149.69 244.142 120.683 332.812 146.477Z" fill="#6F97F6" fill-opacity="0.4"/>
</svg>
